. 
 
http://www.torrenting.com          :     Once & For all ;)


               www . Torrenting . Com 

(((((((((((((= Enjoy No RAR releases =))))))))))))))))))))


...................................NFO:....................................

.








































          
          
              
              
                    
                    
                    
                    
Kill.List.2011.BRRiP.XviD.AC3-SiC

Poster:
[img]http://img42.imageshack.us/img42/9919/killlistbr.png[/img]

IMDB Link: 
http://www.imdb.com/title/tt1788391

Description:
A Dark Psychological Thriller


General:
Complete name                    : Kill.List.2011.BRRiP.XviD.AC3-SiC.avi
Format                           : AVI
Format/Info                      : Audio Video Interleave
File size                        : 978 MiB
Duration                         : 1h 35mn
Overall bit rate                 : 1 432 Kbps

Video
ID                               : 0
Format                           : MPEG-4 Visual
Format profile                   : Advanced Simple@L5
Format settings, BVOP            : 3
Format settings, QPel            : No
Format settings, GMC             : No warppoints
Format settings, Matrix          : Default (H.263)
Codec ID                         : XVID
Codec ID/Hint                    : XviD
Duration                         : 1h 35mn
Bit rate                         : 1 041 Kbps
Width                            : 720 pixels
Height                           : 304 pixels
Display aspect ratio             : 2.35:1
Frame rate                       : 23.976 fps
Color space                      : YUV
Chroma subsampling               : 4:2:0
Bit depth                        : 8 bits
Scan type                        : Progressive
Compression mode                 : Lossy
Bits/(Pixel*Frame)               : 0.198
Stream size                      : 711 MiB (73%)


Audio
ID                               : 1
Format                           : AC-3
Format/Info                      : Audio Coding 3
Mode extension                   : CM (complete main)
Codec ID                         : 2000
Duration                         : 1h 35mn
Bit rate mode                    : Constant
Bit rate                         : 384 Kbps
Channel(s)                       : 6 channels
Channel positions                : Front: L C R, Side: L R, LFE
Sampling rate                    : 48.0 KHz
Bit depth                        : 16 bits
Compression mode                 : Lossy
Stream size                      : 262 MiB (27%)
Alignment                        : Aligned on interleaves
Interleave, duration             : 64 ms (1.53 video frames)
Interleave, preload duration     : 192 ms

Screenshots:
[IMG]http://img810.imageshack.us/img810/1864/vlcsnap2012011115h16m22.png[/IMG]
[IMG]http://img36.imageshack.us/img36/9789/vlcsnap2012011115h16m32.png[/IMG]
[IMG]http://img836.imageshack.us/img836/9940/vlcsnap2012011115h16m43.png[/IMG]
[IMG]http://img855.imageshack.us/img855/7886/vlcsnap2012011115h17m11.png[/IMG]
[IMG]http://img861.imageshack.us/img861/1217/vlcsnap2012011115h17m30.png[/IMG]

Note:  Stripped audio from source, converted to 5.1 AC3 and muxed to our encode :)  Video came out real nice as well ;) nice filesize for a great lookin rip :)

Source:  Kill.List.2011.720p.BluRay.X264-7SinS  -  Many Many Thanks! :)

Enjoy!

Respects to T00NG0D, ELEKTRI4KA, PA, YeFsTe, MrRep and everyone in the struggle...